<svg width="20" height="18" viewBox="0 0 20 18" fill="none" xmlns="http://www.w3.org/2000/svg">
<path d="M10.2779 16.3125H8.33345V11.9102L14.1924 5.97832C14.7313 5.4327 14.3497 4.5 13.5876 4.5H0.857131C0.0949856 4.5 -0.286608 5.4327 0.252276 5.97832L6.11125 11.9102V16.3125H4.16682C3.39981 16.3125 2.77795 16.9421 2.77795 17.7188C2.77795 17.8741 2.90225 18 3.05572 18H11.389C11.5424 18 11.6667 17.8741 11.6667 17.7188C11.6667 16.9421 11.0449 16.3125 10.2779 16.3125ZM15 0C12.8261 0 10.9949 1.41328 10.3063 3.375H12.1306C12.7088 2.37129 13.7719 1.6875 15 1.6875C16.8379 1.6875 18.3334 3.20133 18.3334 5.0625C18.3334 6.92367 16.8379 8.4375 15 8.4375C14.5126 8.4375 14.0525 8.325 13.6348 8.13375L12.4105 9.37336C13.1678 9.84094 14.0483 10.125 15 10.125C17.7615 10.125 20 7.85848 20 5.0625C20 2.26652 17.7615 0 15 0Z" fill="white"/>
</svg>
